<svg width="272" height="276" viewBox="0 0 272 276" fill="none" xmlns="http://www.w3.org/2000/svg">
<g clip-path="url(#clip0_19_2)">
<path opacity="0.999" fill-rule="evenodd" clip-rule="evenodd" d="M182.5 21.5C191.578 20.4081 195.245 24.2414 193.5 33C191.229 37.6345 187.562 39.3011 182.5 38C175.969 32.6176 175.969 27.1176 182.5 21.5Z" fill="#05262D"/>
<path fill-rule="evenodd" clip-rule="evenodd" d="M65.5 23.5C74.1923 23.7012 77.3589 28.0345 75 36.5C70.0461 41.8208 65.0461 41.8208 60 36.5C58.1044 30.4345 59.9378 26.1012 65.5 23.5Z" fill="#05262D"/>
<path fill-rule="evenodd" clip-rule="evenodd" d="M86.5 28.5C94.9917 28.7905 98.1584 33.1238 96 41.5C90.5931 46.7655 85.2598 46.7655 80 41.5C78.0561 34.9795 80.2228 30.6462 86.5 28.5Z" fill="#05262D"/>
<path fill-rule="evenodd" clip-rule="evenodd" d="M210.5 32.5C212.677 32.5861 214.677 33.2528 216.5 34.5C217.172 39.1391 217.338 43.8058 217 48.5C218.211 53.7103 221.377 55.5437 226.5 54C232.197 49.9203 236.197 51.087 238.5 57.5C235.951 65.8665 230.285 69.3665 221.5 68C210.66 64.5156 204.994 57.0156 204.5 45.5C203.836 39.7817 205.836 35.4483 210.5 32.5Z" fill="#05262D"/>
<path fill-rule="evenodd" clip-rule="evenodd" d="M91.5 51.5C100.149 52.601 102.982 57.2677 100 65.5C94.7149 70.8649 89.7149 70.5316 85 64.5C83.9172 58.4458 86.0838 54.1125 91.5 51.5Z" fill="#05262D"/>
<path fill-rule="evenodd" clip-rule="evenodd" d="M38.5 58.5C46.1852 58.8556 49.3518 62.8556 48 70.5C44.6664 75.6477 40.1664 76.8144 34.5 74C29.7145 67.1946 31.0478 62.0279 38.5 58.5Z" fill="#05262D"/>
<path fill-rule="evenodd" clip-rule="evenodd" d="M140.5 66.5C150.966 65.1271 154.799 69.4605 152 79.5C147 84.8333 142 84.8333 137 79.5C135.539 74.3265 136.706 69.9932 140.5 66.5Z" fill="#05262D"/>
<path opacity="0.998" fill-rule="evenodd" clip-rule="evenodd" d="M136.5 166.5C135.817 168.176 134.483 168.843 132.5 168.5C132.657 169.873 132.49 171.207 132 172.5C130.301 171.594 128.467 171.261 126.5 171.5C122.272 162.951 119.106 153.951 117 144.5C112.67 135.164 107.336 126.498 101 118.5C97.5146 112.105 96.8479 105.438 99 98.5C105.721 85.118 109.554 70.9513 110.5 56C110.249 49.7393 109.416 43.5726 108 37.5C103.909 32.0818 100.242 26.4152 97 20.5C95.311 13.0166 98.1444 10.1833 105.5 12C107.697 14.9282 109.531 18.0949 111 21.5C114.979 25.6438 118.645 25.3104 122 20.5C123.181 16.6371 125.014 13.1371 127.5 10C134.598 7.46542 138.098 9.96542 138 17.5C132.333 26.5 126.667 35.5 121 44.5C120.383 47.0351 120.883 49.3684 122.5 51.5C123.723 52.6139 125.056 52.7805 126.5 52C131.461 47.7299 135.461 42.7299 138.5 37C147.739 34.9204 150.573 38.4204 147 47.5C139.587 56.9154 130.92 64.9154 121 71.5C119.122 77.4238 117.455 83.4238 116 89.5C106.137 107.637 110.304 111.804 128.5 102C130.956 99.5925 132.789 96.7591 134 93.5C138.155 89.2955 141.822 89.6288 145 94.5C144.89 102.871 141.056 109.038 133.5 113C128.833 115 124.167 117 119.5 119C118.941 119.725 118.608 120.558 118.5 121.5C120.664 126.495 122.83 131.495 125 136.5C127.333 139.167 129.667 139.167 132 136.5C132.837 134.649 133.671 132.816 134.5 131C133.167 127.333 133.167 123.667 134.5 120C142.927 118.253 146.927 121.753 146.5 130.5C144.439 139.287 140.272 146.954 134 153.5C132.844 158.347 133.677 162.68 136.5 166.5Z" fill="#05262D"/>
<path opacity="0.999" fill-rule="evenodd" clip-rule="evenodd" d="M44.5 39.5C54.8122 39.7651 63.3122 43.7651 70 51.5C73.3096 58.1286 74.3096 65.1286 73 72.5C70.224 78.3853 67.724 84.3853 65.5 90.5C66.1279 92.2581 67.1279 93.7581 68.5 95C76.6035 98.8078 83.7701 103.975 90 110.5C96.0764 118.633 94.2431 122.8 84.5 123C70.193 106.001 51.8596 98.3341 29.5 100C19.6095 95.4171 14.2762 87.5838 13.5 76.5C14.7532 70.7087 18.0865 68.8754 23.5 71C25.49 76.2056 27.6567 81.3723 30 86.5C36.5561 90.553 43.0561 90.3864 49.5 86C56.4098 80.4982 60.7431 73.4982 62.5 65C59.0999 55.3116 52.0999 50.6449 41.5 51C36.8198 45.5437 37.8198 41.7104 44.5 39.5Z" fill="#05262D"/>
<path fill-rule="evenodd" clip-rule="evenodd" d="M237.5 71.5C249.904 70.0486 253.57 74.8819 248.5 86C240.735 89.6121 235.735 87.4455 233.5 79.5C233.782 76.2691 235.115 73.6024 237.5 71.5Z" fill="#05262D"/>
<path fill-rule="evenodd" clip-rule="evenodd" d="M85.5 76.5C94.8315 75.3336 98.3315 79.3336 96 88.5C92.4859 94.0688 87.9859 94.9021 82.5 91C78.7633 85.3378 79.7633 80.5045 85.5 76.5Z" fill="#05262D"/>
<path fill-rule="evenodd" clip-rule="evenodd" d="M155.5 94.5C165.648 93.4731 169.481 97.8065 167 107.5C162.62 112.343 157.954 112.677 153 108.5C150.418 103.12 151.251 98.4531 155.5 94.5Z" fill="#05262D"/>
<path fill-rule="evenodd" clip-rule="evenodd" d="M9.49997 98.5C20.9906 98.4859 23.9906 103.486 18.5 113.5C9.06236 116.9 4.56236 113.566 4.99997 103.5C6.02493 101.313 7.52493 99.6464 9.49997 98.5Z" fill="#05262D"/>
<path fill-rule="evenodd" clip-rule="evenodd" d="M183.5 146.5C182.527 146.013 181.527 145.513 180.5 145C180.788 142.762 182.122 140.929 184.5 139.5C181.706 136.865 179.373 137.365 177.5 141C173.899 144.04 169.899 144.873 165.5 143.5C164.224 142.386 164.224 141.386 165.5 140.5C167.87 142.562 170.537 142.729 173.5 141C182.23 136.275 185.397 129.109 183 119.5C176.435 106.373 170.435 93.0398 165 79.5C161.351 63.5925 158.351 47.5925 156 31.5C153.499 26.4936 150.499 21.8269 147 17.5C146.761 10.529 149.928 8.36234 156.5 11C161.635 15.4325 165.135 20.9325 167 27.5C168.415 34.5803 170.082 41.5803 172 48.5C173.019 49.6872 174.186 50.6872 175.5 51.5C182.392 48.399 188.892 49.0657 195 53.5C197.106 58.2972 195.606 61.6306 190.5 63.5C185.018 61.6192 180.185 62.6192 176 66.5C175.833 68 175.667 69.5 175.5 71C178.945 86.3482 185.279 100.348 194.5 113C196.365 114.301 198.365 114.635 200.5 114C205.004 110.16 207.838 105.327 209 99.5C209.505 92.4613 209.505 85.4613 209 78.5C212.412 71.0288 216.412 70.6955 221 77.5C221.333 82.8333 221.667 88.1667 222 93.5C223.666 96.3788 226.166 97.2121 229.5 96C233.41 93.6777 237.41 93.3444 241.5 95C244.397 98.6478 244.063 101.981 240.5 105C231.452 106.672 223.119 110.006 215.5 115C204.992 125.675 194.325 136.175 183.5 146.5Z" fill="#05262D"/>
<path fill-rule="evenodd" clip-rule="evenodd" d="M191.5 78.5C200.799 78.2899 204.299 82.6232 202 91.5C198.178 95.7211 193.678 96.5545 188.5 94C183.928 87.6943 184.928 82.5276 191.5 78.5Z" fill="#05262D"/>
<path fill-rule="evenodd" clip-rule="evenodd" d="M253.5 102.5C261.739 103.246 264.572 107.579 262 115.5C257.402 120.446 252.402 120.779 247 116.5C244.289 109.438 246.456 104.771 253.5 102.5Z" fill="#05262D"/>
<path fill-rule="evenodd" clip-rule="evenodd" d="M224.5 119.5C233.149 120.603 235.982 125.27 233 133.5C228.333 137.5 223.667 137.5 219 133.5C216.449 126.972 218.282 122.305 224.5 119.5Z" fill="#05262D"/>
<path fill-rule="evenodd" clip-rule="evenodd" d="M245.5 124.5C252.702 125.773 254.368 129.606 250.5 136C242.841 138.003 239.674 135.17 241 127.5C242.409 126.219 243.909 125.219 245.5 124.5Z" fill="#05262D"/>
<path fill-rule="evenodd" clip-rule="evenodd" d="M84.5 130.5C93.6721 131.165 96.5055 135.831 93 144.5C90.0052 147.265 86.5052 148.098 82.5 147C77.1734 143.564 76.1734 139.064 79.5 133.5C81.1446 132.304 82.8113 131.304 84.5 130.5Z" fill="#05262D"/>
<path fill-rule="evenodd" clip-rule="evenodd" d="M252.5 141.5C262.197 140.91 265.697 145.243 263 154.5C257.514 160.08 252.514 159.747 248 153.5C246.474 148.239 247.974 144.239 252.5 141.5Z" fill="#05262D"/>
<path fill-rule="evenodd" clip-rule="evenodd" d="M104.5 145.5C113.944 147.736 115.944 152.903 110.5 161C99.569 164.401 95.4024 160.567 98 149.5C99.7918 147.372 101.958 146.039 104.5 145.5Z" fill="#05262D"/>
<path fill-rule="evenodd" clip-rule="evenodd" d="M40.5 157.5C49.1532 156.987 52.6532 160.987 51 169.5C48.4586 174.069 44.6253 175.569 39.5 174C33.0726 168.201 33.406 162.701 40.5 157.5Z" fill="#05262D"/>
<path fill-rule="evenodd" clip-rule="evenodd" d="M136.5 205.5C137.435 202.887 137.602 200.221 137 197.5C136.667 197.833 136.333 198.167 136 198.5C135.5 197.333 134.667 196.5 133.5 196C128.454 195.229 123.62 193.729 119 191.5C117.27 192.649 115.604 192.649 114 191.5C113.383 192.449 113.549 193.282 114.5 194C113.572 194.388 112.905 195.055 112.5 196C114.307 199.78 115.974 203.613 117.5 207.5C116.954 209.135 116.62 210.801 116.5 212.5C114.886 204.943 111.386 198.276 106 192.5C89.1211 174.321 69.2878 160.487 46.5 151C44.1093 150.713 41.7759 150.213 39.5 149.5C30.6779 151.192 22.0113 150.692 13.5 148C6.83442 144.508 2.16775 139.341 -0.5 132.5C-0.5 131.5 -0.5 130.5 -0.5 129.5C1.55316 126.147 4.55316 124.98 8.5 126C11.1363 129.309 13.803 132.642 16.5 136C22.1482 140.181 25.8148 139.014 27.5 132.5C26.3041 128.489 25.4707 124.489 25 120.5C27.0527 116.708 30.2194 115.542 34.5 117C35.7014 117.903 36.5348 119.069 37 120.5C37.5817 127.823 40.415 133.989 45.5 139C51.033 139.863 53.3663 137.363 52.5 131.5C52.4529 127.646 51.6195 123.979 50 120.5C48.9766 116.683 49.4766 113.183 51.5 110C57.4149 108.894 60.9149 111.394 62 117.5C63.1632 124.103 63.8299 130.77 64 137.5C64.5323 140.264 65.3657 142.93 66.5 145.5C84.7769 156.607 101.11 170.107 115.5 186C121.868 190.35 128.868 193.35 136.5 195C140.467 198.624 140.467 202.124 136.5 205.5Z" fill="#05262D"/>
<path fill-rule="evenodd" clip-rule="evenodd" d="M165.5 140.5C164.224 141.386 164.224 142.386 165.5 143.5C169.899 144.873 173.899 144.04 177.5 141C179.373 137.365 181.706 136.865 184.5 139.5C182.122 140.929 180.788 142.762 180.5 145C181.527 145.513 182.527 146.013 183.5 146.5C176.869 152.631 170.369 158.964 164 165.5C156.942 173.733 154.942 183.066 158 193.5C160.284 195.984 162.784 196.151 165.5 194C167 192.5 168.5 191 170 189.5C172.968 183.092 175.468 176.592 177.5 170C183.077 168.777 186.077 170.944 186.5 176.5C185.377 193.251 177.044 204.751 161.5 211C153.858 218.461 153.525 226.128 160.5 234C165.428 235.643 168.928 234.143 171 229.5C171.681 225.071 172.681 220.737 174 216.5C179.397 214.584 184.563 212.084 189.5 209C191.617 207.269 193.117 205.102 194 202.5C198.812 187.047 199.645 171.381 196.5 155.5C197.089 150.455 197.922 145.455 199 140.5C202.32 135.831 205.987 135.498 210 139.5C210.612 144.439 210.112 149.273 208.5 154C207.832 161.671 211.165 164.671 218.5 163C220.286 162.215 221.786 161.049 223 159.5C225.354 155.008 227.187 150.341 228.5 145.5C234.429 142.96 237.763 144.793 238.5 151C236.952 165.548 228.952 173.881 214.5 176C208.549 179.854 206.549 185.187 208.5 192C210.568 192.687 212.568 192.52 214.5 191.5C223.023 184.476 231.69 177.643 240.5 171C245.303 168.8 250.303 168.133 255.5 169C260.758 171.566 261.758 175.233 258.5 180C256.097 181.727 253.597 181.894 251 180.5C240.733 185.431 231.566 191.931 223.5 200C210.547 207.392 198.38 215.892 187 225.5C186.413 229.638 188.247 231.971 192.5 232.5C196.892 230.284 200.892 227.451 204.5 224C213.447 220.473 219.114 223.307 221.5 232.5C220.278 237.241 217.612 241.074 213.5 244C177.691 267.959 138.691 274.959 96.5 265C78.0714 260.037 61.5714 251.537 47 239.5C42.7029 230.596 45.5362 225.096 55.5 223C58.2567 222.416 60.9234 222.75 63.5 224C67.1041 228.279 71.2708 231.779 76 234.5C80.3858 233.004 81.3858 230.337 79 226.5C76.5 224.667 74 222.833 71.5 221C63.8613 212.791 56.1946 204.457 48.5 196C42.601 190.314 36.601 190.147 30.5 195.5C28.4542 198.633 26.7876 201.966 25.5 205.5C22.1272 208.02 18.9606 207.687 16 204.5C15.2617 200.739 15.5951 197.072 17 193.5C22.3359 182.164 31.1692 177.664 43.5 180C47.3372 181.173 50.6706 183.173 53.5 186C55.5 186.667 57.5 186.667 59.5 186C60.949 181.941 62.1157 177.774 63 173.5C65.4973 171.522 68.3307 171.022 71.5 172C72.7185 173.438 73.3852 175.105 73.5 177C70.5268 186.036 70.0268 195.203 72 204.5C73.3333 206.5 74.6667 208.5 76 210.5C84.0987 216.595 91.5987 223.428 98.5 231C106.09 236.769 111.59 235.269 115 226.5C116.301 221.752 116.801 217.085 116.5 212.5C116.62 210.801 116.954 209.135 117.5 207.5C115.974 203.613 114.307 199.78 112.5 196C112.905 195.055 113.572 194.388 114.5 194C113.549 193.282 113.383 192.449 114 191.5C115.604 192.649 117.27 192.649 119 191.5C123.62 193.729 128.454 195.229 133.5 196C134.667 196.5 135.5 197.333 136 198.5C136.333 198.167 136.667 197.833 137 197.5C137.602 200.221 137.435 202.887 136.5 205.5C133.755 208.614 130.922 211.614 128 214.5C126.203 217.802 126.203 221.135 128 224.5C132.551 228.582 136.884 228.249 141 223.5C144.905 216.348 147.071 208.682 147.5 200.5C147.586 195.51 146.419 190.844 144 186.5C140.448 183.281 136.615 180.448 132.5 178C130.294 175.963 128.294 173.797 126.5 171.5C128.467 171.261 130.301 171.594 132 172.5C132.49 171.207 132.657 169.873 132.5 168.5C134.483 168.843 135.817 168.176 136.5 166.5C142.038 169.546 146.872 168.546 151 163.5C152 161.5 153 159.5 154 157.5C154.051 149.165 154.051 140.831 154 132.5C155.514 127.971 157.681 123.805 160.5 120C167.729 116.594 171.229 118.761 171 126.5C167.212 130.408 165.378 135.075 165.5 140.5Z" fill="#05262D"/>
<path fill-rule="evenodd" clip-rule="evenodd" d="M9.50001 159.5C18.7051 159.206 22.2051 163.54 20 172.5C15.0756 177.756 10.0756 177.756 5.00001 172.5C3.24298 166.825 4.74298 162.492 9.50001 159.5Z" fill="#05262D"/>
<path fill-rule="evenodd" clip-rule="evenodd" d="M83.5 186.5C93.349 186.517 96.5156 191.184 93 200.5C87.2399 204.963 82.2399 204.296 78 198.5C76.6766 192.943 78.51 188.943 83.5 186.5Z" fill="#05262D"/>
<path fill-rule="evenodd" clip-rule="evenodd" d="M99.5 204.5C107.692 204.559 110.859 208.559 109 216.5C106.459 221.069 102.625 222.569 97.5 221C90.4178 214.575 91.0845 209.075 99.5 204.5Z" fill="#05262D"/>
<path fill-rule="evenodd" clip-rule="evenodd" d="M234.5 200.5C243.674 201.318 246.34 205.985 242.5 214.5C238.868 217.792 234.868 218.292 230.5 216C227.197 212.205 226.697 208.038 229 203.5C230.876 202.391 232.709 201.391 234.5 200.5Z" fill="#05262D"/>
<path fill-rule="evenodd" clip-rule="evenodd" d="M35.5 205.5C39.2568 205.071 42.7568 205.737 46 207.5C49.5843 220.251 45.2509 224.251 33 219.5C29.3947 213.94 30.228 209.273 35.5 205.5Z" fill="#05262D"/>
</g>
<defs>
<clipPath id="clip0_19_2">
<rect width="272" height="276" fill="white"/>
</clipPath>
</defs>
</svg>
